# xmcd
#
# Track frame offsets:
#	150
#	19402
#	37035
#	58103
#	78842
#	97892
#	116041
#	133851
#	150885
#	167946
#	184476
#	200276
#
# Disc length: 2916 seconds
#
# Revision: 0
# Processed by: cddbd v1.5.2PL0 Copyright (c) Steve Scherf et al.
# Submitted via: EasyCDDAExtractor 9.1.0.1
#
DISCID=9f0b620c
DTITLE=Bianca Ryan - Bianca Ryan 1
DYEAR=1900
DGENRE=Pop
TTITLE0=The Rose
TTITLE1=Awake
TTITLE2=I Believe I Can Fly
TTITLE3=Pray For A Better Day
TTITLE4=Dream In Color
TTITLE5=I Wish That
TTITLE6=I Am Telling You Im Not Going
TTITLE7=Superstar
TTITLE8=I Will
TTITLE9=Pure And Simple
TTITLE10=Light Up My Life
TTITLE11=Why Couldn  It Be Christmas Everyday
EXTD=
EXTT0=
EXTT1=
EXTT2=
EXTT3=
EXTT4=
EXTT5=
EXTT6=
EXTT7=
EXTT8=
EXTT9=
EXTT10=
EXTT11=
PLAYORDER=
